<?xml version="1.0" encoding="utf-8"?>
<!-- Generator: Adobe Illustrator 26.2.1, SVG Export Plug-In . SVG Version: 6.00 Build 0)  -->
<svg version="1.1" id="Layer_1" xmlns="http://www.w3.org/2000/svg" xmlns:xlink="http://www.w3.org/1999/xlink" x="0px" y="0px"
	 viewBox="0 0 634.5 307.3" style="enable-background:new 0 0 634.5 307.3;" xml:space="preserve">
<style type="text/css">
	.st0{fill-rule:evenodd;clip-rule:evenodd;fill:#111C4E;}
	.st1{fill:#111C4E;}
</style>
<g>
	<g>
		<path class="st0" d="M335.1,114.4l38.4-8.8c0.6-0.1,1.2-0.4,1.6-0.7c0.5-0.3,0.9-0.8,1.2-1.3c0.3-0.5,0.5-1.1,0.6-1.7
			c0.1-0.6,0-1.2-0.1-1.8l-16.3-70.9c-0.3-1.2-1-2.2-2.1-2.8c-1-0.6-2.3-0.8-3.4-0.5l-38.4,8.8c-1.2,0.3-2.2,1-2.8,2.1
			c-0.6,1-0.8,2.3-0.5,3.4l16.3,70.9c0.3,1.2,1,2.2,2.1,2.8C332.6,114.5,333.9,114.7,335.1,114.4z"/>
		<path class="st0" d="M321.8,158.2l46.6-43.1c1.8-1.8,1.3-2.9-1.1-2l-32,7.3c-1.3,0.3-2.5,1-3.5,1.9c-1,0.9-1.8,2.1-2.2,3.4
			l-9.7,31.3C319.2,159.3,320,160,321.8,158.2z"/>
		<path class="st0" d="M236.8,144.1l69.8,21.6c1.2,0.2,2.4,0,3.5-0.6c1.1-0.6,1.9-1.6,2.3-2.7l11.7-37.4c0.2-0.6,0.2-1.2,0.2-1.8
			c-0.1-0.6-0.3-1.2-0.5-1.7c-0.3-0.5-0.7-1-1.2-1.4c-0.5-0.4-1-0.7-1.6-0.8l-69.8-21.4c-1.2-0.3-2.4-0.2-3.5,0.4
			c-1.1,0.6-1.9,1.6-2.2,2.8l-11.6,37.4c-0.3,1.2-0.2,2.4,0.4,3.5C234.6,143,235.6,143.8,236.8,144.1z"/>
		<path class="st0" d="M214.3,67.5l14.1,61.9c0.4,2.4,1.6,2.4,2.2,0l9.7-31.3c0.3-1.3,0.3-2.7,0-4.1c-0.3-1.3-0.9-2.6-1.8-3.6
			l-22.3-24.1C214.7,64.6,213.5,65.1,214.3,67.5z"/>
		<path class="st0" d="M268.8,1.3l-53.5,49.5c-0.9,0.8-1.4,1.9-1.4,3.1c0,1.2,0.4,2.3,1.2,3.2L241.9,86c0.8,0.9,2,1.4,3.2,1.4
			c1.2,0,2.4-0.4,3.3-1.2l53.4-49.6c0.9-0.8,1.4-1.9,1.4-3.1c0-1.2-0.4-2.3-1.2-3.2L275.3,1.4c-0.4-0.4-0.9-0.8-1.5-1
			S272.7,0,272.1,0s-1.2,0.1-1.8,0.3C269.8,0.5,269.2,0.9,268.8,1.3z"/>
		<path class="st0" d="M320.5,113.3c2.4,0.7,4-0.6,3.3-3.2l-15.5-66.9c-0.7-2.4-2.7-3.1-4.4-1.3l-50.4,46.8
			c-1.8,1.8-1.3,3.7,1.1,4.4L320.5,113.3z"/>
		<path class="st0" d="M346.8,19.9l-61-18.7c-2.4-0.7-2.9,0.2-0.9,2.2l22.3,24c1,0.9,2.2,1.6,3.5,2c1.3,0.4,2.7,0.4,4,0.1l32-7.3
			C349.2,21.7,349.2,20.6,346.8,19.9z"/>
	</g>
	<g>
		<path class="st1" d="M14.6,219.6c-4.1,0-7.6-1.3-10.4-4C1.4,213,0,209.7,0,205.9c0-4,1.4-7.3,4.1-9.9c2.9-2.7,6.3-4,10.4-4
			c4.1,0,7.5,1.3,10.3,4c2.8,2.6,4.1,5.9,4.1,9.9c0,3.8-1.4,7.1-4.1,9.7C22.1,218.3,18.7,219.6,14.6,219.6z M1.6,305v-73.8h25.9V305
			H1.6z M44.9,305v-73.8h25.4l0.3,9.2c1.9-3.6,4.7-6.4,8.4-8.4c3.7-2,8-3,12.9-3c8.3,0,14.6,2.7,18.9,8c4.4,5.2,6.6,13,6.6,23.2V305
			H91.5v-40c0-8.7-3.3-13-9.9-13c-3.5,0-6.2,1.2-8.1,3.7c-1.8,2.4-2.7,5.8-2.7,10.3v39H44.9z M141.8,305v-53h-11.9v-20.7h11.9v-7.1
			c0-11.3,2.8-20.1,8.3-26.3c5.6-6.2,13.5-9.3,23.7-9.3c3,0,5.7,0.2,8.3,0.7c2.7,0.4,4.9,1,6.7,1.7l-1.3,21.4c-1-0.5-2.3-0.8-3.9-1
			c-1.4-0.3-2.8-0.4-4-0.4c-4.1,0-7.2,1.2-9.1,3.6c-1.9,2.4-2.9,6.1-2.9,11.3v5.4h17.4v20.7h-17.4v53H141.8z M196.6,305V189.2h25.9
			V305H196.6z M264.2,307.3c-8.1,0-14.3-2.6-18.6-7.7c-4.3-5.2-6.4-12.9-6.4-22.9v-45.5h26v40.2c0,4.4,0.8,7.6,2.3,9.7
			c1.6,2.1,4.1,3.1,7.6,3.1c3.4,0,6.1-1.2,7.9-3.6c1.9-2.5,2.9-6,2.9-10.4v-39h25.9V305h-25.4l-0.3-9.2c-1.9,3.6-4.8,6.4-8.6,8.4
			C273.7,306.3,269.3,307.3,264.2,307.3z M323.4,305l26.9-38l-25.4-35.7h28.9l12,20l11.7-20h27.5l-25.3,36l27,37.7h-29l-13.4-22.3
			L350.9,305H323.4z M451.9,307.3c-6.6,0-12.5-1.6-17.7-4.9c-5.1-3.2-9.2-7.7-12.2-13.4c-3-5.8-4.4-12.4-4.4-19.7
			c0-7.1,1.6-13.4,4.7-19.2c3.2-5.8,7.6-10.4,13-13.7c5.4-3.4,11.4-5.1,18-5.1c5.4,0,10.4,1.3,14.9,4c4.6,2.7,8.2,6.4,11,11.3v-57.3
			h12.2V305h-11.9l-0.3-13c-2.9,4.9-6.6,8.6-11.3,11.3C463.3,305.9,457.9,307.3,451.9,307.3z M455.1,296.4c5,0,9.3-1.1,13-3.4
			c3.7-2.3,6.6-5.5,8.7-9.6c2.2-4.1,3.3-8.8,3.3-14.2c0-5.3-1.1-10.1-3.3-14.2c-2.1-4.1-5-7.3-8.7-9.6c-3.7-2.3-8.1-3.4-13-3.4
			c-4.9,0-9.2,1.1-13,3.4c-3.7,2.3-6.7,5.5-8.9,9.6c-2.1,4.1-3.1,8.8-3.1,14.2c0,5.3,1,10.1,3.1,14.2c2.2,4.1,5.1,7.3,8.9,9.6
			C445.9,295.3,450.2,296.4,455.1,296.4z M555.2,307.3c-5.6,0-10.7-1.3-15.3-4c-4.5-2.7-8-6.4-10.6-11.3l-0.3,13h-11.9V189.2h12.2
			v57.3c2.9-4.9,6.6-8.6,11.3-11.3c4.7-2.7,10-4,16-4c6.7,0,12.6,1.6,17.7,4.9c5.1,3.2,9.2,7.7,12.2,13.4c3,5.7,4.4,12.3,4.4,19.7
			c0,7.1-1.6,13.5-4.9,19.3c-3.1,5.7-7.4,10.3-12.9,13.7C567.9,305.6,561.9,307.3,555.2,307.3z M553.5,296.4c5,0,9.3-1.1,13-3.4
			c3.7-2.3,6.6-5.5,8.7-9.6c2.2-4.1,3.3-8.8,3.3-14.2c0-5.3-1.1-10.1-3.3-14.2c-2.1-4.1-5-7.3-8.7-9.6c-3.7-2.3-8.1-3.4-13-3.4
			c-4.9,0-9.2,1.1-13,3.4c-3.7,2.3-6.7,5.5-8.9,9.6c-2.1,4.1-3.1,8.8-3.1,14.2c0,5.3,1,10.1,3.1,14.2c2.2,4.1,5.1,7.3,8.9,9.6
			C544.3,295.3,548.6,296.4,553.5,296.4z"/>
	</g>
	<path class="st1" d="M602.4,210.1v-15.2h-5.7v-3h14.8v3h-5.6v15.2H602.4z M614.6,210.1l0.9-18.2h3.4l5.6,11.6l5.7-11.6h3.4
		l0.9,18.2h-3.1l-0.6-13.5l-5,10.3h-2.5l-5.1-10.4l-0.5,13.6H614.6z"/>
</g>
</svg>
